# xmcd
#
# Track frame offsets:
#	150
#	16608
#	78439
#	100727
#	118430
#	133306
#	146179
#	164015
#	184534
#	199769
#	211238
#
# Disc length: 3072 seconds
#
# Revision: 0
# Processed by: cddbd v1.5.2PL0 Copyright (c) Steve Scherf et al.
# Submitted via: EasyCDDAExtractor 12.0.4.1
#
DISCID=9e0bfe0b
DTITLE=Taxmeni - 40 let /5
DYEAR=2009
DGENRE=Country
TTITLE0=John Henry
TTITLE1=Mala misa military
TTITLE2=Dlouhy cerny zavoj
TTITLE3=Nashville
TTITLE4=Buh musel mit snad srdce kovboje
TTITLE5=Nebyla to fama
TTITLE6=Jedu dal
TTITLE7=Jo, to jsem jeste zil
TTITLE8=Spitfire a flak
TTITLE9=Dvanactero prani
TTITLE10=Ve jmenu Panny Marie Svatohostynske
EXTD=
EXTT0=
EXTT1=
EXTT2=
EXTT3=
EXTT4=
EXTT5=
EXTT6=
EXTT7=
EXTT8=
EXTT9=
EXTT10=
PLAYORDER=
